<svg width="192" height="18" viewBox="0 0 192 18" fill="none" xmlns="http://www.w3.org/2000/svg">
<rect width="192" height="18" fill="#1E1E1E"/>
<g style="mix-blend-mode:screen" filter="url(#filter0_d_0_1)">
<rect x="-43" y="-207" width="277" height="452" fill="#83D0E1"/>
</g>
<path d="M3.728 10.888H7.312V13H0.992V1.768H3.728V10.888ZM17.033 8.392C17.033 8.648 17.017 8.91467 16.985 9.192H10.793C10.8357 9.74667 11.0117 10.1733 11.321 10.472C11.641 10.76 12.0303 10.904 12.489 10.904C13.1717 10.904 13.6463 10.616 13.913 10.04H16.825C16.6757 10.6267 16.4037 11.1547 16.009 11.624C15.625 12.0933 15.1397 12.4613 14.553 12.728C13.9663 12.9947 13.3103 13.128 12.585 13.128C11.7103 13.128 10.9317 12.9413 10.249 12.568C9.56633 12.1947 9.033 11.6613 8.649 10.968C8.265 10.2747 8.073 9.464 8.073 8.536C8.073 7.608 8.25967 6.79733 8.633 6.104C9.017 5.41067 9.55033 4.87733 10.233 4.504C10.9157 4.13067 11.6997 3.944 12.585 3.944C13.449 3.944 14.217 4.12533 14.889 4.488C15.561 4.85067 16.0837 5.368 16.457 6.04C16.841 6.712 17.033 7.496 17.033 8.392ZM14.233 7.672C14.233 7.20267 14.073 6.82933 13.753 6.552C13.433 6.27467 13.033 6.136 12.553 6.136C12.0943 6.136 11.705 6.26933 11.385 6.536C11.0757 6.80267 10.8837 7.18133 10.809 7.672H14.233ZM22.5404 13.128C21.6657 13.128 20.8764 12.9413 20.1724 12.568C19.479 12.1947 18.9297 11.6613 18.5244 10.968C18.1297 10.2747 17.9324 9.464 17.9324 8.536C17.9324 7.61867 18.135 6.81333 18.5404 6.12C18.9457 5.416 19.5004 4.87733 20.2044 4.504C20.9084 4.13067 21.6977 3.944 22.5724 3.944C23.447 3.944 24.2364 4.13067 24.9404 4.504C25.6444 4.87733 26.199 5.416 26.6044 6.12C27.0097 6.81333 27.2124 7.61867 27.2124 8.536C27.2124 9.45333 27.0044 10.264 26.5884 10.968C26.183 11.6613 25.623 12.1947 24.9084 12.568C24.2044 12.9413 23.415 13.128 22.5404 13.128ZM22.5404 10.76C23.063 10.76 23.5057 10.568 23.8684 10.184C24.2417 9.8 24.4284 9.25067 24.4284 8.536C24.4284 7.82133 24.247 7.272 23.8844 6.888C23.5324 6.504 23.095 6.312 22.5724 6.312C22.039 6.312 21.5964 6.504 21.2444 6.888C20.8924 7.26133 20.7164 7.81067 20.7164 8.536C20.7164 9.25067 20.887 9.8 21.2284 10.184C21.5804 10.568 22.0177 10.76 22.5404 10.76ZM36.1185 13.112C35.2972 13.112 34.5612 12.9787 33.9105 12.712C33.2598 12.4453 32.7372 12.0507 32.3425 11.528C31.9585 11.0053 31.7558 10.376 31.7345 9.64H34.6465C34.6892 10.056 34.8332 10.376 35.0785 10.6C35.3238 10.8133 35.6438 10.92 36.0385 10.92C36.4438 10.92 36.7638 10.8293 36.9985 10.648C37.2332 10.456 37.3505 10.1947 37.3505 9.864C37.3505 9.58667 37.2545 9.35733 37.0625 9.176C36.8812 8.99467 36.6518 8.84533 36.3745 8.728C36.1078 8.61067 35.7238 8.47733 35.2225 8.328C34.4972 8.104 33.9052 7.88 33.4465 7.656C32.9878 7.432 32.5932 7.10133 32.2625 6.664C31.9318 6.22667 31.7665 5.656 31.7665 4.952C31.7665 3.90667 32.1452 3.09067 32.9025 2.504C33.6598 1.90667 34.6465 1.608 35.8625 1.608C37.0998 1.608 38.0972 1.90667 38.8545 2.504C39.6118 3.09067 40.0172 3.912 40.0705 4.968H37.1105C37.0892 4.60533 36.9558 4.32267 36.7105 4.12C36.4652 3.90667 36.1505 3.8 35.7665 3.8C35.4358 3.8 35.1692 3.89067 34.9665 4.072C34.7638 4.24267 34.6625 4.49333 34.6625 4.824C34.6625 5.18667 34.8332 5.46933 35.1745 5.672C35.5158 5.87467 36.0492 6.09333 36.7745 6.328C37.4998 6.57333 38.0865 6.808 38.5345 7.032C38.9932 7.256 39.3878 7.58133 39.7185 8.008C40.0492 8.43467 40.2145 8.984 40.2145 9.656C40.2145 10.296 40.0492 10.8773 39.7185 11.4C39.3985 11.9227 38.9292 12.3387 38.3105 12.648C37.6918 12.9573 36.9612 13.112 36.1185 13.112ZM45.9623 13.128C45.0876 13.128 44.2983 12.9413 43.5943 12.568C42.9009 12.1947 42.3516 11.6613 41.9463 10.968C41.5516 10.2747 41.3543 9.464 41.3543 8.536C41.3543 7.61867 41.5569 6.81333 41.9622 6.12C42.3676 5.416 42.9223 4.87733 43.6263 4.504C44.3303 4.13067 45.1196 3.944 45.9943 3.944C46.8689 3.944 47.6583 4.13067 48.3623 4.504C49.0663 4.87733 49.6209 5.416 50.0263 6.12C50.4316 6.81333 50.6343 7.61867 50.6343 8.536C50.6343 9.45333 50.4263 10.264 50.0103 10.968C49.6049 11.6613 49.0449 12.1947 48.3303 12.568C47.6263 12.9413 46.8369 13.128 45.9623 13.128ZM45.9623 10.76C46.4849 10.76 46.9276 10.568 47.2903 10.184C47.6636 9.8 47.8503 9.25067 47.8503 8.536C47.8503 7.82133 47.6689 7.272 47.3063 6.888C46.9543 6.504 46.5169 6.312 45.9943 6.312C45.4609 6.312 45.0183 6.504 44.6663 6.888C44.3143 7.26133 44.1383 7.81067 44.1383 8.536C44.1383 9.25067 44.3089 9.8 44.6503 10.184C45.0023 10.568 45.4396 10.76 45.9623 10.76ZM56.5658 6.344H55.0938V13H52.3578V6.344H51.3658V4.072H52.3578V3.816C52.3578 2.71733 52.6724 1.88533 53.3018 1.32C53.9311 0.743999 54.8538 0.455999 56.0698 0.455999C56.2724 0.455999 56.4218 0.461333 56.5178 0.471999V2.792C55.9951 2.76 55.6271 2.83467 55.4138 3.016C55.2004 3.19733 55.0938 3.52267 55.0938 3.992V4.072H56.5658V6.344ZM62.8274 10.68V13H61.4354C60.4434 13 59.67 12.76 59.1154 12.28C58.5607 11.7893 58.2834 10.9947 58.2834 9.896V6.344H57.1954V4.072H58.2834V1.896H61.0194V4.072H62.8114V6.344H61.0194V9.928C61.0194 10.1947 61.0834 10.3867 61.2114 10.504C61.3394 10.6213 61.5527 10.68 61.8514 10.68H62.8274ZM77.1674 4.072L74.7514 13H71.7274L70.3194 7.208L68.8634 13H65.8554L63.4234 4.072H66.1594L67.4234 10.456L68.9274 4.072H71.8234L73.3434 10.424L74.5914 4.072H77.1674ZM77.6668 8.52C77.6668 7.60267 77.8374 6.79733 78.1788 6.104C78.5308 5.41067 79.0054 4.87733 79.6028 4.504C80.2001 4.13067 80.8668 3.944 81.6028 3.944C82.2321 3.944 82.7814 4.072 83.2508 4.328C83.7308 4.584 84.0988 4.92 84.3548 5.336V4.072H87.0908V13H84.3548V11.736C84.0881 12.152 83.7148 12.488 83.2348 12.744C82.7654 13 82.2161 13.128 81.5868 13.128C80.8614 13.128 80.2001 12.9413 79.6028 12.568C79.0054 12.184 78.5308 11.6453 78.1788 10.952C77.8374 10.248 77.6668 9.43733 77.6668 8.52ZM84.3548 8.536C84.3548 7.85333 84.1628 7.31467 83.7788 6.92C83.4054 6.52533 82.9468 6.328 82.4028 6.328C81.8588 6.328 81.3948 6.52533 81.0108 6.92C80.6374 7.304 80.4508 7.83733 80.4508 8.52C80.4508 9.20267 80.6374 9.74667 81.0108 10.152C81.3948 10.5467 81.8588 10.744 82.4028 10.744C82.9468 10.744 83.4054 10.5467 83.7788 10.152C84.1628 9.75733 84.3548 9.21867 84.3548 8.536ZM91.8061 5.56C92.1261 5.06933 92.5261 4.68533 93.0061 4.408C93.4861 4.12 94.0195 3.976 94.6061 3.976V6.872H93.8541C93.1715 6.872 92.6595 7.02133 92.3181 7.32C91.9768 7.608 91.8061 8.12 91.8061 8.856V13H89.0701V4.072H91.8061V5.56ZM104.33 8.392C104.33 8.648 104.314 8.91467 104.282 9.192H98.0899C98.1325 9.74667 98.3085 10.1733 98.6179 10.472C98.9379 10.76 99.3272 10.904 99.7859 10.904C100.469 10.904 100.943 10.616 101.21 10.04H104.122C103.973 10.6267 103.701 11.1547 103.306 11.624C102.922 12.0933 102.437 12.4613 101.85 12.728C101.263 12.9947 100.607 13.128 99.8819 13.128C99.0072 13.128 98.2285 12.9413 97.5459 12.568C96.8632 12.1947 96.3299 11.6613 95.9459 10.968C95.5619 10.2747 95.3699 9.464 95.3699 8.536C95.3699 7.608 95.5565 6.79733 95.9299 6.104C96.3139 5.41067 96.8472 4.87733 97.5299 4.504C98.2125 4.13067 98.9965 3.944 99.8819 3.944C100.746 3.944 101.514 4.12533 102.186 4.488C102.858 4.85067 103.381 5.368 103.754 6.04C104.138 6.712 104.33 7.496 104.33 8.392ZM101.53 7.672C101.53 7.20267 101.37 6.82933 101.05 6.552C100.73 6.27467 100.33 6.136 99.8499 6.136C99.3912 6.136 99.0019 6.26933 98.6819 6.536C98.3725 6.80267 98.1805 7.18133 98.1059 7.672H101.53ZM113.372 1.768C114.556 1.768 115.591 2.00267 116.476 2.472C117.361 2.94133 118.044 3.60267 118.524 4.456C119.015 5.29867 119.26 6.27467 119.26 7.384C119.26 8.48267 119.015 9.45867 118.524 10.312C118.044 11.1653 117.356 11.8267 116.46 12.296C115.575 12.7653 114.545 13 113.372 13H109.164V1.768H113.372ZM113.196 10.632C114.231 10.632 115.036 10.3493 115.612 9.784C116.188 9.21867 116.476 8.41867 116.476 7.384C116.476 6.34933 116.188 5.544 115.612 4.968C115.036 4.392 114.231 4.104 113.196 4.104H111.9V10.632H113.196ZM129.205 8.392C129.205 8.648 129.189 8.91467 129.157 9.192H122.965C123.008 9.74667 123.184 10.1733 123.493 10.472C123.813 10.76 124.202 10.904 124.661 10.904C125.344 10.904 125.818 10.616 126.085 10.04H128.997C128.848 10.6267 128.576 11.1547 128.181 11.624C127.797 12.0933 127.312 12.4613 126.725 12.728C126.138 12.9947 125.482 13.128 124.757 13.128C123.882 13.128 123.104 12.9413 122.421 12.568C121.738 12.1947 121.205 11.6613 120.821 10.968C120.437 10.2747 120.245 9.464 120.245 8.536C120.245 7.608 120.432 6.79733 120.805 6.104C121.189 5.41067 121.722 4.87733 122.405 4.504C123.088 4.13067 123.872 3.944 124.757 3.944C125.621 3.944 126.389 4.12533 127.061 4.488C127.733 4.85067 128.256 5.368 128.629 6.04C129.013 6.712 129.205 7.496 129.205 8.392ZM126.405 7.672C126.405 7.20267 126.245 6.82933 125.925 6.552C125.605 6.27467 125.205 6.136 124.725 6.136C124.266 6.136 123.877 6.26933 123.557 6.536C123.248 6.80267 123.056 7.18133 122.981 7.672H126.405ZM134.664 10.44L136.6 4.072H139.512L136.344 13H132.968L129.8 4.072H132.728L134.664 10.44ZM149.08 8.392C149.08 8.648 149.064 8.91467 149.032 9.192H142.84C142.883 9.74667 143.059 10.1733 143.368 10.472C143.688 10.76 144.077 10.904 144.536 10.904C145.219 10.904 145.693 10.616 145.96 10.04H148.872C148.723 10.6267 148.451 11.1547 148.056 11.624C147.672 12.0933 147.187 12.4613 146.6 12.728C146.013 12.9947 145.357 13.128 144.632 13.128C143.757 13.128 142.979 12.9413 142.296 12.568C141.613 12.1947 141.08 11.6613 140.696 10.968C140.312 10.2747 140.12 9.464 140.12 8.536C140.12 7.608 140.307 6.79733 140.68 6.104C141.064 5.41067 141.597 4.87733 142.28 4.504C142.963 4.13067 143.747 3.944 144.632 3.944C145.496 3.944 146.264 4.12533 146.936 4.488C147.608 4.85067 148.131 5.368 148.504 6.04C148.888 6.712 149.08 7.496 149.08 8.392ZM146.28 7.672C146.28 7.20267 146.12 6.82933 145.8 6.552C145.48 6.27467 145.08 6.136 144.6 6.136C144.141 6.136 143.752 6.26933 143.432 6.536C143.123 6.80267 142.931 7.18133 142.856 7.672H146.28ZM153.259 1.16V13H150.523V1.16H153.259ZM159.306 13.128C158.431 13.128 157.642 12.9413 156.938 12.568C156.245 12.1947 155.695 11.6613 155.29 10.968C154.895 10.2747 154.698 9.464 154.698 8.536C154.698 7.61867 154.901 6.81333 155.306 6.12C155.711 5.416 156.266 4.87733 156.97 4.504C157.674 4.13067 158.463 3.944 159.338 3.944C160.213 3.944 161.002 4.13067 161.706 4.504C162.41 4.87733 162.965 5.416 163.37 6.12C163.775 6.81333 163.978 7.61867 163.978 8.536C163.978 9.45333 163.77 10.264 163.354 10.968C162.949 11.6613 162.389 12.1947 161.674 12.568C160.97 12.9413 160.181 13.128 159.306 13.128ZM159.306 10.76C159.829 10.76 160.271 10.568 160.634 10.184C161.007 9.8 161.194 9.25067 161.194 8.536C161.194 7.82133 161.013 7.272 160.65 6.888C160.298 6.504 159.861 6.312 159.338 6.312C158.805 6.312 158.362 6.504 158.01 6.888C157.658 7.26133 157.482 7.81067 157.482 8.536C157.482 9.25067 157.653 9.8 157.994 10.184C158.346 10.568 158.783 10.76 159.306 10.76ZM168.166 5.336C168.432 4.92 168.8 4.584 169.27 4.328C169.739 4.072 170.288 3.944 170.918 3.944C171.654 3.944 172.32 4.13067 172.918 4.504C173.515 4.87733 173.984 5.41067 174.326 6.104C174.678 6.79733 174.854 7.60267 174.854 8.52C174.854 9.43733 174.678 10.248 174.326 10.952C173.984 11.6453 173.515 12.184 172.918 12.568C172.32 12.9413 171.654 13.128 170.918 13.128C170.299 13.128 169.75 13 169.27 12.744C168.8 12.488 168.432 12.1573 168.166 11.752V17.256H165.43V4.072H168.166V5.336ZM172.07 8.52C172.07 7.83733 171.878 7.304 171.494 6.92C171.12 6.52533 170.656 6.328 170.102 6.328C169.558 6.328 169.094 6.52533 168.71 6.92C168.336 7.31467 168.15 7.85333 168.15 8.536C168.15 9.21867 168.336 9.75733 168.71 10.152C169.094 10.5467 169.558 10.744 170.102 10.744C170.646 10.744 171.11 10.5467 171.494 10.152C171.878 9.74667 172.07 9.20267 172.07 8.52ZM184.705 8.392C184.705 8.648 184.689 8.91467 184.657 9.192H178.465C178.508 9.74667 178.684 10.1733 178.993 10.472C179.313 10.76 179.702 10.904 180.161 10.904C180.844 10.904 181.318 10.616 181.585 10.04H184.497C184.348 10.6267 184.076 11.1547 183.681 11.624C183.297 12.0933 182.812 12.4613 182.225 12.728C181.638 12.9947 180.982 13.128 180.257 13.128C179.382 13.128 178.604 12.9413 177.921 12.568C177.238 12.1947 176.705 11.6613 176.321 10.968C175.937 10.2747 175.745 9.464 175.745 8.536C175.745 7.608 175.932 6.79733 176.305 6.104C176.689 5.41067 177.222 4.87733 177.905 4.504C178.588 4.13067 179.372 3.944 180.257 3.944C181.121 3.944 181.889 4.12533 182.561 4.488C183.233 4.85067 183.756 5.368 184.129 6.04C184.513 6.712 184.705 7.496 184.705 8.392ZM181.905 7.672C181.905 7.20267 181.745 6.82933 181.425 6.552C181.105 6.27467 180.705 6.136 180.225 6.136C179.766 6.136 179.377 6.26933 179.057 6.536C178.748 6.80267 178.556 7.18133 178.481 7.672H181.905ZM188.884 5.56C189.204 5.06933 189.604 4.68533 190.084 4.408C190.564 4.12 191.098 3.976 191.684 3.976V6.872H190.932C190.25 6.872 189.738 7.02133 189.396 7.32C189.055 7.608 188.884 8.12 188.884 8.856V13H186.148V4.072H188.884V5.56Z" fill="#1E1E1E" fill-opacity="0.94"/>
<defs>
<filter id="filter0_d_0_1" x="-47" y="-207" width="285" height="460" filterUnits="userSpaceOnUse" color-interpolation-filters="sRGB">
<feFlood flood-opacity="0" result="BackgroundImageFix"/>
<feColorMatrix in="SourceAlpha" type="matrix" values="0 0 0 0 0 0 0 0 0 0 0 0 0 0 0 0 0 0 127 0" result="hardAlpha"/>
<feOffset dy="4"/>
<feGaussianBlur stdDeviation="2"/>
<feComposite in2="hardAlpha" operator="out"/>
<feColorMatrix type="matrix" values="0 0 0 0 0 0 0 0 0 0 0 0 0 0 0 0 0 0 0.25 0"/>
<feBlend mode="normal" in2="BackgroundImageFix" result="effect1_dropShadow_0_1"/>
<feBlend mode="normal" in="SourceGraphic" in2="effect1_dropShadow_0_1" result="shape"/>
</filter>
</defs>
</svg>
